<svg viewBox="0 0 387 512" xmlns="http://www.w3.org/2000/svg" xml:space="preserve" fill-rule="evenodd" clip-rule="evenodd" stroke-linejoin="round" stroke-miterlimit="2"><path d="M115.77 0h249.07l1.1.12.78.12c11.13 1.76 19.81 11.43 20.01 22.75.12 20.65 0 41.35.06 62.01 0 2.73-.14 5.19-2.18 7.21a7.5 7.5 0 0 1-11.07-.42c-1.72-1.99-1.77-4.26-1.79-6.77.05-20 0-40.02.03-60.03.08-3.17-.73-6.08-3.3-8.1-3-2.54-7.4-1.78-11.08-1.9-80.43.03-160.9 0-241.33.01-.05 27.95.03 56-.05 83.94a17.6 17.6 0 0 1-17.6 17.05c-27.73.03-55.63 0-83.38.01v257c-.13 3.53.7 7.81-1.96 10.62a7.52 7.52 0 0 1-11.19-.11C-.64 380.83.16 376.41.02 373c.03-83 0-166 .02-249 .02-5.03-.35-10.19 1.19-15.05a28.81 28.81 0 0 1 7.7-12.43c29.35-29.31 58.66-58.67 88-87.99A28.33 28.33 0 0 1 115.77 0Zm-14.73 25.63C75.91 50.74 50.8 75.87 25.66 101c21.93.01 43.84-.01 65.75.01 2.6-.03 5.28.15 7.88-.19.65-.2 1.17-.67 1.53-1.43.45-2.74.2-5.62.24-8.39-.02-21.79 0-43.58-.02-65.37Zm116.34 6.68c39.59.06 79.46-.01 119.04.04a7.46 7.46 0 0 1 7.88 7.61c.1 10.35.03 20.72.05 31.07.13 3.28-1.12 6.28-4.14 7.8-3.82 1.55-8.73.58-12.8.84-4.2-.26-10.17 1.12-13.2-2.48a7.5 7.5 0 0 1 3.2-12.15c3.85-.74 8-.26 11.94-.36V47.33c-35.42.02-70.83-.03-106.24.02 0 5.75.07 11.5-.06 17.24 20.47.19 40.94-.01 61.4.1a7.47 7.47 0 0 1 4.96 13.29c-2.1 1.71-4.42 1.67-6.99 1.71-21.96-.06-44 0-65.99-.03-2.66.02-5.1-.79-6.76-2.97-1.8-2.29-1.5-4.95-1.57-7.69.06-9.34 0-18.68.01-28.01-.02-2.62.5-5.01 2.55-6.77 1.94-1.78 4.23-1.9 6.72-1.91Zm5.03 64.68c37.66.01 75.34.03 113-.01 2.3.03 4.43.16 6.23 1.75a7.51 7.51 0 0 1 .51 11.01c-1.83 1.91-4.17 2.27-6.72 2.26-39.32 0-78.71-.01-118.03.01-2.6-.02-4.97-.19-6.92-2.1a7.52 7.52 0 0 1-.02-10.85c2.86-3 8.17-1.85 11.94-2.07Zm162.26 19.82c2.9 2.8 1.96 7.52 2.11 11.19v353c-.04 6.07.52 11.53-2.18 17.2a24.03 24.03 0 0 1-19.94 13.8H22.02C10.08 511.03.3 501.1.08 489.01-.03 464.7.09 440.32 0 416c.04-2.77-.06-5.25 1.96-7.42a7.53 7.53 0 0 1 10.48-.63c2.14 1.82 2.64 4.32 2.6 7.01-.02 24.33-.05 48.76 0 73.08-.08 5.27 4.1 9.17 9.32 8.95 112.66.02 225.41.02 338.06 0 4.07.15 7.73-2.19 8.94-6.13.7-3.17.36-6.62.41-9.86-.01-118 .02-236-.01-354 .12-3.29-.6-7.12 1.75-9.81a7.5 7.5 0 0 1 11.15-.38Zm-168.3 12.52H329.4c3.1.06 6.33-.25 9.38.26a7.49 7.49 0 0 1 4.76 10.56c-1.62 3.18-4.69 4.3-8.13 4.19-39.33 0-78.68-.02-118.02 0-2.4-.05-4.61-.14-6.53-1.78a7.52 7.52 0 0 1-1.22-10.27c1.66-2.18 4.06-3.04 6.72-2.96ZM51.4 167.66c12.66.02 25.35-.01 38.03.01 2.6-.02 4.94.64 6.66 2.68 1.95 2.28 1.75 4.83 1.8 7.65-.08 12.34.04 24.69-.04 37.03.02 2.57-.82 4.9-2.91 6.48-3.13 2.5-8.73 1.29-12.53 1.56-10 .01-20-.03-30 .02-2.38-.07-4.69.12-6.71-1.34-2.25-1.57-3.27-4-3.23-6.7-.05-12.35.05-24.71-.03-37.05.06-2.71-.19-5.11 1.6-7.38 1.82-2.43 4.46-3 7.35-2.96Zm6.07 15.01v25.4l25.4-.01v-25.39h-25.4Zm77.94-15.02c65.32.03 130.67.02 196 0 3.84.14 8.05-.73 10.93 2.44a7.53 7.53 0 0 1-2.1 11.77c-3.2 1.4-7.4.63-10.84.81-64.65.01-129.32-.03-194 .02-3.41-.12-6.97.58-9.69-1.99a7.52 7.52 0 0 1 .2-11.2c2.59-2.34 6.3-1.75 9.5-1.85Zm-4.03 40.44c41.25-.04 82.8-.04 124.07 0 4.16-.16 7.68 2.71 8.05 6.9a7.51 7.51 0 0 1-8.05 8.07c-39 .02-78.05 0-117.04.01-2.98-.03-6.03.16-8.98-.17-4.13-.6-6.88-4.87-5.97-8.9.82-3.73 4.14-6.06 7.92-5.91Zm-80.02 32.3c12.97.05 25.96-.05 38.92.05a7.46 7.46 0 0 1 7.3 5.54c.5 2.94.27 6.04.3 9.02 0 10.33-.03 20.67.02 31-.06 2.51.06 4.77-1.58 6.85-1.69 2.23-4.16 3.03-6.88 2.96-12.34.01-24.7-.05-37.05.02-2.63-.05-4.97.11-7.13-1.68-2.26-1.8-2.87-4.34-2.8-7.12 0-12.34.02-24.7-.01-37.04 0-2.62.05-4.99 1.9-7.04 1.85-2.12 4.34-2.59 7.01-2.56Zm6.1 15.01v25.4h25.4c.02-8.46 0-16.93.02-25.39-8.47-.02-16.94 0-25.41-.01Zm73.94-14.99c65.99-.03 132.01 0 198-.01 3.65.22 9.02-.85 12.03 1.6a7.51 7.51 0 0 1 .43 11.47c-2.64 2.47-6.13 1.84-9.46 1.95-66.88-.06-134.11.01-201.02-.03a7.52 7.52 0 0 1-8.03-8.37c.5-4.09 3.99-6.76 8.05-6.61Zm1 40.38c40.92.04 82.14-.03 123.03.03 3.57-.1 6.7 1.88 7.77 5.32a7.48 7.48 0 0 1-5.29 9.4c-3.1.5-6.37.21-9.5.26-39.01-.01-78.03.01-117.04-.01-2.69.06-5.1-.89-6.69-3.11a7.52 7.52 0 0 1 1.31-10.11c1.88-1.64 4.04-1.73 6.4-1.78Zm-82.04 32.37c12.69-.08 25.39.02 38.07-.05 2.57.01 4.92.13 6.92 1.96 2.1 1.82 2.56 4.25 2.53 6.92 0 10.66-.03 21.35 0 32.01-.01 2.68.12 5.4-.14 8.06a7.33 7.33 0 0 1-7.31 6.44c-12.68.11-25.38-.03-38.05.06-2.55-.04-4.85.1-7-1.58-2.23-1.71-2.99-4.21-2.91-6.95-.02-12.34.03-24.69-.03-37.04.08-2.37-.1-4.54 1.34-6.57a7.6 7.6 0 0 1 6.58-3.26Zm7.1 14.97.01 25.41 25.4-.01v-25.4h-25.4Zm80.94-15c64.68-.01 129.34.03 194-.02 3.1.1 6.63-.45 9.17 1.73a7.5 7.5 0 0 1 .14 11.49c-2.53 2.31-6.17 1.72-9.3 1.83-66.96-.06-134.07 0-201.05-.04a7.53 7.53 0 0 1-7.95-6.11 7.47 7.47 0 0 1 5.47-8.59c3.1-.52 6.39-.24 9.53-.29Zm-6 40.39c40.64.02 81.37.02 122.01 0 2.97-.04 5.66.48 7.54 2.95a7.5 7.5 0 0 1-2.74 11.36c-3.26 1.26-7.35.53-10.8.7-37.67.01-75.34-.02-113 .02-3.37-.11-6.92.58-9.63-1.91a7.53 7.53 0 0 1-.46-10.72c1.92-2.09 4.39-2.39 7.08-2.4Zm-80 32.32c12.35.06 24.7 0 37.04.03 2.78-.05 5.3.79 6.97 3.1 1.6 2.13 1.41 4.5 1.49 7.03-.08 12.34.01 24.69-.03 37.02.16 3.66-1.88 6.94-5.47 7.95-2.91.52-6.03.26-9 .3-10.33 0-20.67-.03-31 .02-2.45-.06-4.76.12-6.82-1.44-2.23-1.64-3.17-4.09-3.11-6.8 0-13.03-.02-26.07 0-39.09-.05-2.71.95-5.14 3.22-6.72 2-1.46 4.34-1.32 6.72-1.4Zm5.07 15.03v25.4l25.4-.01v-25.39h-25.4Zm77.94-15.02c65.32.03 130.67.02 196 0 3.31.12 7.7-.59 10.31 1.85a7.53 7.53 0 0 1-.14 11.48c-2.56 2.19-6.06 1.61-9.18 1.71-64.65-.05-129.33-.01-194-.02-3.47-.18-7.7.59-10.94-.78a7.52 7.52 0 0 1-1.97-12.01c2.7-2.79 6.38-2.11 9.92-2.23Zm-3.03 40.41c38.66.02 77.36 0 116.03 0 3.69.24 9.09-.85 12.16 1.57a7.5 7.5 0 0 1 .3 11.65c-2.59 2.34-6.27 1.7-9.47 1.81-38.67-.04-77.33-.04-116 0-3.2-.11-6.88.53-9.47-1.81a7.52 7.52 0 0 1-.24-11.2c1.9-1.8 4.2-2.01 6.69-2.02Z"/></svg>