<svg xmlns="http://www.w3.org/2000/svg" xmlns:xlink="http://www.w3.org/1999/xlink" width="1000" zoomAndPan="magnify" viewBox="0 0 750 299.999988" height="400" preserveAspectRatio="xMidYMid meet" version="1.0"><defs><g/><clipPath id="86754705f0"><path d="M 3.75 15 L 216.75 15 L 216.75 91 L 3.75 91 Z M 3.75 15 " clip-rule="nonzero"/></clipPath></defs><rect x="-75" width="900" fill="#ffffff" y="-29.999999" height="359.999986" fill-opacity="1"/><rect x="-75" width="900" fill="#ffffff" y="-29.999999" height="359.999986" fill-opacity="1"/><rect x="-75" width="900" fill="#ffffff" y="-29.999999" height="359.999986" fill-opacity="1"/><path fill="#37a169" d="M 202.046875 158.050781 C 202.046875 156.707031 202.214844 155.199219 202.214844 153.855469 C 202.214844 133.230469 193.832031 112.601562 178.238281 98.515625 C 160.296875 82.25 133.808594 76.882812 110.167969 76.882812 C 63.554688 76.882812 18.285156 102.539062 18.285156 153.855469 C 18.285156 155.199219 18.285156 156.539062 18.453125 158.050781 C 8.226562 162.242188 5.878906 189.074219 13.421875 219.597656 C 21.136719 251.125 34.71875 275.945312 45.78125 273.261719 C 51.148438 271.917969 54.835938 264.539062 56.511719 253.808594 C 71.601562 272.253906 90.382812 285 110.5 285 C 130.621094 285 149.398438 272.253906 164.488281 253.808594 C 165.664062 261.355469 167.84375 267.222656 170.859375 270.578125 C 171.699219 271.917969 172.871094 272.757812 173.878906 273.09375 C 174.046875 273.09375 174.214844 273.09375 174.550781 273.261719 C 174.71875 273.261719 174.886719 273.429688 175.21875 273.429688 C 186.285156 276.113281 199.867188 251.125 207.578125 219.765625 C 214.789062 188.90625 212.441406 161.90625 202.046875 158.050781 Z M 202.046875 158.050781 " fill-opacity="1" fill-rule="nonzero"/><path fill="#ffffff" d="M 89.878906 214.734375 L 106.644531 204.671875 L 89.878906 222.445312 L 73.113281 204.671875 Z M 89.878906 214.734375 " fill-opacity="1" fill-rule="nonzero"/><path fill="#ffffff" d="M 54 214.734375 L 70.765625 204.671875 L 54 222.445312 L 45.613281 213.558594 L 37.230469 204.671875 Z M 54 214.734375 " fill-opacity="1" fill-rule="nonzero"/><path fill="#ffffff" d="M 131.125 215.570312 L 147.890625 205.507812 L 139.507812 214.398438 L 131.125 223.285156 L 122.742188 214.398438 L 114.359375 205.507812 Z M 131.125 215.570312 " fill-opacity="1" fill-rule="nonzero"/><path fill="#ffffff" d="M 166.667969 215.570312 L 183.4375 205.507812 L 175.050781 214.398438 L 166.667969 223.285156 L 158.285156 214.398438 L 149.902344 205.507812 Z M 166.667969 215.570312 " fill-opacity="1" fill-rule="nonzero"/><path fill="#ffffff" d="M 73.113281 239.21875 L 89.878906 229.15625 L 81.496094 238.042969 L 73.113281 246.933594 L 64.730469 238.042969 L 56.347656 229.15625 Z M 73.113281 239.21875 " fill-opacity="1" fill-rule="nonzero"/><path fill="#ffffff" d="M 110.667969 239.21875 L 127.4375 229.15625 L 119.050781 238.042969 L 110.667969 246.933594 L 102.285156 238.042969 L 93.902344 229.15625 Z M 110.667969 239.21875 " fill-opacity="1" fill-rule="nonzero"/><path fill="#ffffff" d="M 148.898438 239.21875 L 165.664062 229.15625 L 157.28125 238.042969 L 148.898438 246.933594 L 140.511719 238.042969 L 132.128906 229.15625 Z M 148.898438 239.21875 " fill-opacity="1" fill-rule="nonzero"/><path fill="#ffffff" d="M 93.902344 261.1875 L 110.667969 251.125 L 102.285156 260.011719 L 93.902344 268.902344 L 85.519531 260.011719 L 77.136719 251.125 Z M 93.902344 261.1875 " fill-opacity="1" fill-rule="nonzero"/><path fill="#ffffff" d="M 129.949219 261.1875 L 146.71875 251.125 L 138.332031 260.011719 L 129.949219 268.902344 L 121.566406 260.011719 L 113.183594 251.125 Z M 129.949219 261.1875 " fill-opacity="1" fill-rule="nonzero"/><path fill="#ffffff" d="M 123.746094 175.15625 L 110.332031 172.136719 L 96.921875 175.15625 L 97.589844 175.660156 L 96.921875 175.660156 L 103.628906 184.714844 L 110.332031 193.769531 L 123.746094 175.660156 L 123.078125 175.660156 Z M 123.746094 175.15625 " fill-opacity="1" fill-rule="nonzero"/><path fill="#ffffff" d="M 106.8125 144.800781 C 106.8125 145.945312 106.757812 147.082031 106.644531 148.21875 C 106.53125 149.355469 106.367188 150.484375 106.144531 151.605469 C 105.921875 152.726562 105.644531 153.832031 105.3125 154.925781 C 104.980469 156.019531 104.59375 157.09375 104.15625 158.148438 C 103.722656 159.207031 103.234375 160.238281 102.695312 161.246094 C 102.15625 162.253906 101.570312 163.230469 100.933594 164.179688 C 100.300781 165.128906 99.621094 166.046875 98.898438 166.929688 C 98.171875 167.8125 97.40625 168.660156 96.597656 169.464844 C 95.789062 170.273438 94.945312 171.039062 94.0625 171.765625 C 93.179688 172.488281 92.261719 173.167969 91.3125 173.804688 C 90.363281 174.4375 89.386719 175.027344 88.378906 175.5625 C 87.371094 176.101562 86.339844 176.589844 85.285156 177.027344 C 84.230469 177.464844 83.15625 177.847656 82.0625 178.179688 C 80.96875 178.511719 79.863281 178.789062 78.742188 179.011719 C 77.621094 179.234375 76.492188 179.402344 75.355469 179.515625 C 74.21875 179.628906 73.082031 179.683594 71.9375 179.683594 C 70.796875 179.683594 69.65625 179.628906 68.519531 179.515625 C 67.382812 179.402344 66.253906 179.234375 65.136719 179.011719 C 64.015625 178.789062 62.90625 178.511719 61.816406 178.179688 C 60.722656 177.847656 59.648438 177.464844 58.59375 177.027344 C 57.539062 176.589844 56.507812 176.101562 55.5 175.5625 C 54.492188 175.027344 53.511719 174.4375 52.5625 173.804688 C 51.613281 173.167969 50.699219 172.488281 49.816406 171.765625 C 48.929688 171.039062 48.085938 170.273438 47.277344 169.464844 C 46.472656 168.660156 45.703125 167.8125 44.980469 166.929688 C 44.253906 166.046875 43.578125 165.128906 42.941406 164.179688 C 42.308594 163.230469 41.71875 162.253906 41.183594 161.246094 C 40.644531 160.238281 40.15625 159.207031 39.71875 158.148438 C 39.28125 157.09375 38.898438 156.019531 38.566406 154.925781 C 38.234375 153.832031 37.957031 152.726562 37.734375 151.605469 C 37.511719 150.484375 37.34375 149.355469 37.230469 148.21875 C 37.121094 147.082031 37.0625 145.945312 37.0625 144.800781 C 37.0625 143.660156 37.121094 142.519531 37.230469 141.382812 C 37.34375 140.246094 37.511719 139.117188 37.734375 137.996094 C 37.957031 136.875 38.234375 135.769531 38.566406 134.675781 C 38.898438 133.582031 39.28125 132.507812 39.71875 131.453125 C 40.15625 130.398438 40.644531 129.367188 41.183594 128.359375 C 41.71875 127.351562 42.308594 126.371094 42.941406 125.421875 C 43.578125 124.472656 44.253906 123.554688 44.980469 122.671875 C 45.703125 121.789062 46.472656 120.945312 47.277344 120.136719 C 48.085938 119.328125 48.929688 118.5625 49.816406 117.835938 C 50.699219 117.113281 51.613281 116.433594 52.5625 115.796875 C 53.511719 115.164062 54.492188 114.578125 55.5 114.039062 C 56.507812 113.5 57.539062 113.011719 58.59375 112.574219 C 59.648438 112.136719 60.722656 111.753906 61.816406 111.421875 C 62.90625 111.089844 64.015625 110.8125 65.136719 110.589844 C 66.253906 110.367188 67.382812 110.199219 68.519531 110.085938 C 69.65625 109.976562 70.796875 109.917969 71.9375 109.917969 C 73.082031 109.917969 74.21875 109.976562 75.355469 110.085938 C 76.492188 110.199219 77.621094 110.367188 78.742188 110.589844 C 79.863281 110.8125 80.96875 111.089844 82.0625 111.421875 C 83.15625 111.753906 84.230469 112.136719 85.285156 112.574219 C 86.339844 113.011719 87.371094 113.5 88.378906 114.039062 C 89.386719 114.578125 90.363281 115.164062 91.3125 115.796875 C 92.261719 116.433594 93.179688 117.113281 94.0625 117.835938 C 94.945312 118.5625 95.789062 119.328125 96.597656 120.136719 C 97.40625 120.945312 98.171875 121.789062 98.898438 122.671875 C 99.621094 123.554688 100.300781 124.472656 100.933594 125.421875 C 101.570312 126.371094 102.15625 127.351562 102.695312 128.359375 C 103.234375 129.367188 103.722656 130.398438 104.15625 131.453125 C 104.59375 132.507812 104.980469 133.582031 105.3125 134.675781 C 105.644531 135.769531 105.921875 136.875 106.144531 137.996094 C 106.367188 139.117188 106.53125 140.246094 106.644531 141.382812 C 106.757812 142.519531 106.8125 143.660156 106.8125 144.800781 Z M 106.8125 144.800781 " fill-opacity="1" fill-rule="nonzero"/><path fill="#000000" d="M 89.710938 144.800781 C 89.710938 145.382812 89.683594 145.964844 89.625 146.542969 C 89.570312 147.121094 89.484375 147.699219 89.371094 148.269531 C 89.257812 148.839844 89.113281 149.40625 88.945312 149.960938 C 88.777344 150.519531 88.582031 151.066406 88.359375 151.605469 C 88.136719 152.140625 87.886719 152.667969 87.613281 153.179688 C 87.339844 153.695312 87.039062 154.191406 86.714844 154.675781 C 86.390625 155.160156 86.046875 155.628906 85.675781 156.078125 C 85.308594 156.527344 84.917969 156.960938 84.503906 157.371094 C 84.09375 157.78125 83.664062 158.171875 83.214844 158.542969 C 82.761719 158.910156 82.296875 159.257812 81.8125 159.582031 C 81.328125 159.90625 80.828125 160.203125 80.316406 160.480469 C 79.804688 160.753906 79.277344 161 78.738281 161.222656 C 78.203125 161.449219 77.65625 161.644531 77.097656 161.8125 C 76.539062 161.980469 75.976562 162.121094 75.40625 162.234375 C 74.835938 162.351562 74.261719 162.433594 73.679688 162.492188 C 73.101562 162.550781 72.519531 162.578125 71.9375 162.578125 C 71.355469 162.578125 70.777344 162.550781 70.195312 162.492188 C 69.617188 162.433594 69.042969 162.351562 68.472656 162.234375 C 67.902344 162.121094 67.335938 161.980469 66.78125 161.8125 C 66.222656 161.644531 65.675781 161.449219 65.136719 161.222656 C 64.597656 161 64.074219 160.753906 63.5625 160.480469 C 63.046875 160.203125 62.546875 159.90625 62.066406 159.582031 C 61.582031 159.257812 61.113281 158.910156 60.664062 158.542969 C 60.214844 158.171875 59.78125 157.78125 59.371094 157.371094 C 58.960938 156.960938 58.570312 156.527344 58.199219 156.078125 C 57.832031 155.628906 57.484375 155.160156 57.160156 154.675781 C 56.835938 154.191406 56.539062 153.695312 56.265625 153.179688 C 55.992188 152.667969 55.742188 152.140625 55.519531 151.605469 C 55.296875 151.066406 55.101562 150.519531 54.929688 149.960938 C 54.761719 149.40625 54.621094 148.839844 54.507812 148.269531 C 54.394531 147.699219 54.308594 147.121094 54.25 146.542969 C 54.195312 145.964844 54.167969 145.382812 54.167969 144.800781 C 54.167969 144.21875 54.195312 143.636719 54.25 143.058594 C 54.308594 142.480469 54.394531 141.902344 54.507812 141.332031 C 54.621094 140.761719 54.761719 140.199219 54.929688 139.640625 C 55.101562 139.082031 55.296875 138.535156 55.519531 138 C 55.742188 137.460938 55.992188 136.933594 56.265625 136.421875 C 56.539062 135.90625 56.835938 135.410156 57.160156 134.925781 C 57.484375 134.441406 57.832031 133.972656 58.199219 133.523438 C 58.570312 133.074219 58.960938 132.644531 59.371094 132.230469 C 59.78125 131.820312 60.214844 131.429688 60.664062 131.058594 C 61.113281 130.691406 61.582031 130.34375 62.066406 130.019531 C 62.546875 129.695312 63.046875 129.398438 63.5625 129.125 C 64.074219 128.847656 64.597656 128.601562 65.136719 128.378906 C 65.675781 128.15625 66.222656 127.960938 66.78125 127.789062 C 67.335938 127.621094 67.902344 127.480469 68.472656 127.367188 C 69.042969 127.253906 69.617188 127.167969 70.195312 127.109375 C 70.777344 127.054688 71.355469 127.023438 71.9375 127.023438 C 72.519531 127.023438 73.101562 127.054688 73.679688 127.109375 C 74.261719 127.167969 74.835938 127.253906 75.40625 127.367188 C 75.976562 127.480469 76.539062 127.621094 77.097656 127.789062 C 77.65625 127.960938 78.203125 128.15625 78.738281 128.378906 C 79.277344 128.601562 79.804688 128.847656 80.316406 129.125 C 80.828125 129.398438 81.328125 129.695312 81.8125 130.019531 C 82.296875 130.34375 82.761719 130.691406 83.214844 131.058594 C 83.664062 131.429688 84.09375 131.820312 84.503906 132.230469 C 84.917969 132.644531 85.308594 133.074219 85.675781 133.523438 C 86.046875 133.972656 86.390625 134.441406 86.714844 134.925781 C 87.039062 135.410156 87.339844 135.90625 87.613281 136.421875 C 87.886719 136.933594 88.136719 137.460938 88.359375 138 C 88.582031 138.535156 88.777344 139.082031 88.945312 139.640625 C 89.113281 140.199219 89.257812 140.761719 89.371094 141.332031 C 89.484375 141.902344 89.570312 142.480469 89.625 143.058594 C 89.683594 143.636719 89.710938 144.21875 89.710938 144.800781 Z M 89.710938 144.800781 " fill-opacity="1" fill-rule="nonzero"/><path fill="#ffffff" d="M 83.84375 150.839844 C 83.84375 151.378906 83.789062 151.914062 83.683594 152.441406 C 83.578125 152.972656 83.425781 153.484375 83.21875 153.984375 C 83.011719 154.480469 82.757812 154.957031 82.457031 155.402344 C 82.160156 155.851562 81.816406 156.265625 81.4375 156.648438 C 81.054688 157.03125 80.640625 157.371094 80.191406 157.671875 C 79.742188 157.972656 79.269531 158.222656 78.769531 158.429688 C 78.273438 158.636719 77.757812 158.792969 77.230469 158.898438 C 76.699219 159.003906 76.167969 159.054688 75.628906 159.054688 C 75.085938 159.054688 74.554688 159.003906 74.023438 158.898438 C 73.496094 158.792969 72.980469 158.636719 72.484375 158.429688 C 71.984375 158.222656 71.511719 157.972656 71.0625 157.671875 C 70.613281 157.371094 70.199219 157.03125 69.816406 156.648438 C 69.4375 156.265625 69.097656 155.851562 68.796875 155.402344 C 68.496094 154.957031 68.242188 154.480469 68.035156 153.984375 C 67.832031 153.484375 67.675781 152.972656 67.570312 152.441406 C 67.464844 151.914062 67.410156 151.378906 67.410156 150.839844 C 67.410156 150.300781 67.464844 149.765625 67.570312 149.234375 C 67.675781 148.707031 67.832031 148.191406 68.035156 147.695312 C 68.242188 147.195312 68.496094 146.722656 68.796875 146.273438 C 69.097656 145.824219 69.4375 145.410156 69.816406 145.027344 C 70.199219 144.644531 70.613281 144.304688 71.0625 144.007812 C 71.511719 143.707031 71.984375 143.453125 72.484375 143.246094 C 72.980469 143.039062 73.496094 142.882812 74.023438 142.777344 C 74.554688 142.671875 75.085938 142.621094 75.628906 142.621094 C 76.167969 142.621094 76.699219 142.671875 77.230469 142.777344 C 77.757812 142.882812 78.273438 143.039062 78.769531 143.246094 C 79.269531 143.453125 79.742188 143.707031 80.191406 144.007812 C 80.640625 144.304688 81.054688 144.644531 81.4375 145.027344 C 81.816406 145.410156 82.160156 145.824219 82.457031 146.273438 C 82.757812 146.722656 83.011719 147.195312 83.21875 147.695312 C 83.425781 148.191406 83.578125 148.707031 83.683594 149.234375 C 83.789062 149.765625 83.84375 150.300781 83.84375 150.839844 Z M 83.84375 150.839844 " fill-opacity="1" fill-rule="nonzero"/><path fill="#ffffff" d="M 183.601562 144.800781 C 183.601562 145.945312 183.546875 147.082031 183.433594 148.21875 C 183.324219 149.355469 183.15625 150.484375 182.933594 151.605469 C 182.710938 152.726562 182.433594 153.832031 182.101562 154.925781 C 181.769531 156.019531 181.386719 157.09375 180.949219 158.148438 C 180.511719 159.207031 180.023438 160.238281 179.484375 161.246094 C 178.945312 162.253906 178.359375 163.230469 177.726562 164.179688 C 177.089844 165.128906 176.410156 166.046875 175.6875 166.929688 C 174.960938 167.8125 174.195312 168.660156 173.390625 169.464844 C 172.582031 170.273438 171.734375 171.039062 170.851562 171.765625 C 169.96875 172.488281 169.054688 173.167969 168.105469 173.804688 C 167.15625 174.4375 166.175781 175.027344 165.167969 175.5625 C 164.160156 176.101562 163.128906 176.589844 162.074219 177.027344 C 161.019531 177.464844 159.945312 177.847656 158.851562 178.179688 C 157.757812 178.511719 156.652344 178.789062 155.53125 179.011719 C 154.414062 179.234375 153.285156 179.402344 152.148438 179.515625 C 151.011719 179.628906 149.871094 179.683594 148.730469 179.683594 C 147.585938 179.683594 146.449219 179.628906 145.3125 179.515625 C 144.175781 179.402344 143.046875 179.234375 141.925781 179.011719 C 140.804688 178.789062 139.699219 178.511719 138.605469 178.179688 C 137.511719 177.847656 136.4375 177.464844 135.382812 177.027344 C 134.328125 176.589844 133.296875 176.101562 132.289062 175.5625 C 131.28125 175.027344 130.304688 174.4375 129.355469 173.804688 C 128.40625 173.167969 127.488281 172.488281 126.605469 171.765625 C 125.722656 171.039062 124.875 170.273438 124.070312 169.464844 C 123.261719 168.660156 122.496094 167.8125 121.769531 166.929688 C 121.046875 166.046875 120.367188 165.128906 119.730469 164.179688 C 119.097656 163.230469 118.511719 162.253906 117.972656 161.246094 C 117.433594 160.238281 116.945312 159.207031 116.507812 158.148438 C 116.074219 157.09375 115.6875 156.019531 115.355469 154.925781 C 115.023438 153.832031 114.746094 152.726562 114.523438 151.605469 C 114.300781 150.484375 114.132812 149.355469 114.023438 148.21875 C 113.910156 147.082031 113.855469 145.945312 113.855469 144.800781 C 113.855469 143.660156 113.910156 142.519531 114.023438 141.382812 C 114.132812 140.246094 114.300781 139.117188 114.523438 137.996094 C 114.746094 136.875 115.023438 135.769531 115.355469 134.675781 C 115.6875 133.582031 116.074219 132.507812 116.507812 131.453125 C 116.945312 130.398438 117.433594 129.367188 117.972656 128.359375 C 118.511719 127.351562 119.097656 126.371094 119.730469 125.421875 C 120.367188 124.472656 121.046875 123.554688 121.769531 122.671875 C 122.496094 121.789062 123.261719 120.945312 124.070312 120.136719 C 124.875 119.328125 125.722656 118.5625 126.605469 117.835938 C 127.488281 117.113281 128.40625 116.433594 129.355469 115.796875 C 130.304688 115.164062 131.28125 114.578125 132.289062 114.039062 C 133.296875 113.5 134.328125 113.011719 135.382812 112.574219 C 136.4375 112.136719 137.511719 111.753906 138.605469 111.421875 C 139.699219 111.089844 140.804688 110.8125 141.925781 110.589844 C 143.046875 110.367188 144.175781 110.199219 145.3125 110.085938 C 146.449219 109.976562 147.585938 109.917969 148.730469 109.917969 C 149.871094 109.917969 151.011719 109.976562 152.148438 110.085938 C 153.285156 110.199219 154.414062 110.367188 155.53125 110.589844 C 156.652344 110.8125 157.757812 111.089844 158.851562 111.421875 C 159.945312 111.753906 161.019531 112.136719 162.074219 112.574219 C 163.128906 113.011719 164.160156 113.5 165.167969 114.039062 C 166.175781 114.578125 167.15625 115.164062 168.105469 115.796875 C 169.054688 116.433594 169.96875 117.113281 170.851562 117.835938 C 171.734375 118.5625 172.582031 119.328125 173.390625 120.136719 C 174.195312 120.945312 174.960938 121.789062 175.6875 122.671875 C 176.410156 123.554688 177.089844 124.472656 177.726562 125.421875 C 178.359375 126.371094 178.945312 127.351562 179.484375 128.359375 C 180.023438 129.367188 180.511719 130.398438 180.949219 131.453125 C 181.386719 132.507812 181.769531 133.582031 182.101562 134.675781 C 182.433594 135.769531 182.710938 136.875 182.933594 137.996094 C 183.15625 139.117188 183.324219 140.246094 183.433594 141.382812 C 183.546875 142.519531 183.601562 143.660156 183.601562 144.800781 Z M 183.601562 144.800781 " fill-opacity="1" fill-rule="nonzero"/><path fill="#000000" d="M 166.5 144.800781 C 166.5 145.382812 166.472656 145.964844 166.414062 146.542969 C 166.359375 147.121094 166.273438 147.699219 166.160156 148.269531 C 166.046875 148.839844 165.90625 149.40625 165.734375 149.960938 C 165.566406 150.519531 165.371094 151.066406 165.148438 151.605469 C 164.925781 152.140625 164.675781 152.667969 164.402344 153.179688 C 164.128906 153.695312 163.828125 154.191406 163.507812 154.675781 C 163.183594 155.160156 162.835938 155.628906 162.46875 156.078125 C 162.097656 156.527344 161.707031 156.960938 161.296875 157.371094 C 160.882812 157.78125 160.453125 158.171875 160.003906 158.542969 C 159.554688 158.910156 159.085938 159.257812 158.601562 159.582031 C 158.117188 159.90625 157.621094 160.203125 157.105469 160.480469 C 156.59375 160.753906 156.066406 161 155.53125 161.222656 C 154.992188 161.449219 154.445312 161.644531 153.886719 161.8125 C 153.332031 161.980469 152.765625 162.121094 152.195312 162.234375 C 151.625 162.351562 151.050781 162.433594 150.472656 162.492188 C 149.890625 162.550781 149.3125 162.578125 148.730469 162.578125 C 148.148438 162.578125 147.566406 162.550781 146.988281 162.492188 C 146.40625 162.433594 145.832031 162.351562 145.261719 162.234375 C 144.691406 162.121094 144.128906 161.980469 143.570312 161.8125 C 143.011719 161.644531 142.464844 161.449219 141.929688 161.222656 C 141.390625 161 140.863281 160.753906 140.351562 160.480469 C 139.835938 160.203125 139.339844 159.90625 138.855469 159.582031 C 138.371094 159.257812 137.90625 158.910156 137.453125 158.542969 C 137.003906 158.171875 136.574219 157.78125 136.160156 157.371094 C 135.75 156.960938 135.359375 156.527344 134.992188 156.078125 C 134.621094 155.628906 134.273438 155.160156 133.953125 154.675781 C 133.628906 154.191406 133.328125 153.695312 133.054688 153.179688 C 132.78125 152.667969 132.53125 152.140625 132.308594 151.605469 C 132.085938 151.066406 131.890625 150.519531 131.722656 149.960938 C 131.554688 149.40625 131.410156 148.839844 131.296875 148.269531 C 131.183594 147.699219 131.097656 147.121094 131.042969 146.542969 C 130.984375 145.964844 130.957031 145.382812 130.957031 144.800781 C 130.957031 144.21875 130.984375 143.636719 131.042969 143.058594 C 131.097656 142.480469 131.183594 141.902344 131.296875 141.332031 C 131.410156 140.761719 131.554688 140.199219 131.722656 139.640625 C 131.890625 139.082031 132.085938 138.535156 132.308594 138 C 132.53125 137.460938 132.78125 136.933594 133.054688 136.421875 C 133.328125 135.90625 133.628906 135.410156 133.953125 134.925781 C 134.273438 134.441406 134.621094 133.972656 134.992188 133.523438 C 135.359375 133.074219 135.75 132.644531 136.160156 132.230469 C 136.574219 131.820312 137.003906 131.429688 137.453125 131.058594 C 137.90625 130.691406 138.371094 130.34375 138.855469 130.019531 C 139.339844 129.695312 139.835938 129.398438 140.351562 129.125 C 140.863281 128.847656 141.390625 128.601562 141.929688 128.378906 C 142.464844 128.15625 143.011719 127.960938 143.570312 127.789062 C 144.128906 127.621094 144.691406 127.480469 145.261719 127.367188 C 145.832031 127.253906 146.40625 127.167969 146.988281 127.109375 C 147.566406 127.054688 148.148438 127.023438 148.730469 127.023438 C 149.3125 127.023438 149.890625 127.054688 150.472656 127.109375 C 151.050781 127.167969 151.625 127.253906 152.195312 127.367188 C 152.765625 127.480469 153.332031 127.621094 153.886719 127.789062 C 154.445312 127.960938 154.992188 128.15625 155.53125 128.378906 C 156.066406 128.601562 156.59375 128.847656 157.105469 129.125 C 157.621094 129.398438 158.117188 129.695312 158.601562 130.019531 C 159.085938 130.34375 159.554688 130.691406 160.003906 131.058594 C 160.453125 131.429688 160.882812 131.820312 161.296875 132.230469 C 161.707031 132.644531 162.097656 133.074219 162.46875 133.523438 C 162.835938 133.972656 163.183594 134.441406 163.507812 134.925781 C 163.828125 135.410156 164.128906 135.90625 164.402344 136.421875 C 164.675781 136.933594 164.925781 137.460938 165.148438 138 C 165.371094 138.535156 165.566406 139.082031 165.734375 139.640625 C 165.90625 140.199219 166.046875 140.761719 166.160156 141.332031 C 166.273438 141.902344 166.359375 142.480469 166.414062 143.058594 C 166.472656 143.636719 166.5 144.21875 166.5 144.800781 Z M 166.5 144.800781 " fill-opacity="1" fill-rule="nonzero"/><path fill="#ffffff" d="M 153.257812 150.839844 C 153.257812 151.378906 153.203125 151.914062 153.097656 152.441406 C 152.992188 152.972656 152.835938 153.484375 152.628906 153.984375 C 152.425781 154.480469 152.171875 154.957031 151.871094 155.402344 C 151.570312 155.851562 151.230469 156.265625 150.851562 156.648438 C 150.46875 157.03125 150.054688 157.371094 149.605469 157.671875 C 149.15625 157.972656 148.683594 158.222656 148.183594 158.429688 C 147.6875 158.636719 147.171875 158.792969 146.644531 158.898438 C 146.113281 159.003906 145.578125 159.054688 145.039062 159.054688 C 144.5 159.054688 143.964844 159.003906 143.4375 158.898438 C 142.910156 158.792969 142.394531 158.636719 141.898438 158.429688 C 141.398438 158.222656 140.925781 157.972656 140.476562 157.671875 C 140.027344 157.371094 139.613281 157.03125 139.230469 156.648438 C 138.851562 156.265625 138.507812 155.851562 138.210938 155.402344 C 137.910156 154.957031 137.65625 154.480469 137.449219 153.984375 C 137.242188 153.484375 137.089844 152.972656 136.984375 152.441406 C 136.878906 151.914062 136.824219 151.378906 136.824219 150.839844 C 136.824219 150.300781 136.878906 149.765625 136.984375 149.234375 C 137.089844 148.707031 137.242188 148.191406 137.449219 147.695312 C 137.65625 147.195312 137.910156 146.722656 138.210938 146.273438 C 138.507812 145.824219 138.851562 145.410156 139.230469 145.027344 C 139.613281 144.644531 140.027344 144.304688 140.476562 144.007812 C 140.925781 143.707031 141.398438 143.453125 141.898438 143.246094 C 142.394531 143.039062 142.910156 142.882812 143.4375 142.777344 C 143.964844 142.671875 144.5 142.621094 145.039062 142.621094 C 145.578125 142.621094 146.113281 142.671875 146.644531 142.777344 C 147.171875 142.882812 147.6875 143.039062 148.183594 143.246094 C 148.683594 143.453125 149.15625 143.707031 149.605469 144.007812 C 150.054688 144.304688 150.46875 144.644531 150.851562 145.027344 C 151.230469 145.410156 151.570312 145.824219 151.871094 146.273438 C 152.171875 146.722656 152.425781 147.195312 152.628906 147.695312 C 152.835938 148.191406 152.992188 148.707031 153.097656 149.234375 C 153.203125 149.765625 153.257812 150.300781 153.257812 150.839844 Z M 153.257812 150.839844 " fill-opacity="1" fill-rule="nonzero"/><g clip-path="url(#86754705f0)"><path fill="#000000" d="M 215.796875 48.039062 L 112.511719 15 L 4.871094 48.039062 L 3.867188 48.539062 L 4.871094 49.042969 L 50.644531 70.84375 C 50.644531 71.347656 50.476562 71.851562 50.476562 72.523438 L 50.476562 90.296875 C 67.242188 79.230469 88.539062 73.695312 110.167969 73.695312 C 130.285156 73.695312 152.585938 77.71875 169.855469 88.957031 L 169.855469 72.355469 C 169.855469 72.019531 169.855469 71.515625 169.855469 71.179688 L 215.628906 48.875 L 216.632812 48.371094 Z M 215.796875 48.039062 " fill-opacity="1" fill-rule="nonzero"/></g><path fill="#ffffff" d="M 21.136719 47.871094 C 24.992188 48.539062 21.136719 55.417969 21.136719 55.417969 C 21.136719 55.417969 17.449219 48.539062 21.136719 47.871094 Z M 21.136719 47.871094 " fill-opacity="1" fill-rule="nonzero"/><path fill="#fca203" d="M 21.136719 55.25 L 25.160156 105.558594 L 17.28125 105.558594 Z M 21.136719 55.25 " fill-opacity="1" fill-rule="nonzero"/><g fill="#000000" fill-opacity="1"><g transform="translate(276.299613, 160.198781)"><g><path d="M 106.75 0 L 107.417969 -59.058594 L 56.160156 -59.058594 L 56.160156 -39.222656 L 66.410156 -39.222656 C 64.183594 -32.984375 60.839844 -29.640625 56.828125 -29.640625 C 47.023438 -29.640625 41.675781 -39 41.675781 -55.714844 C 41.675781 -72.652344 47.023438 -82.011719 56.828125 -82.011719 C 64.40625 -82.011719 69.308594 -75.996094 71.089844 -65.074219 L 106.304688 -71.3125 C 101.847656 -98.058594 84.460938 -113.210938 56.605469 -113.210938 C 24.070312 -113.210938 6.015625 -92.484375 6.015625 -55.714844 C 6.015625 -19.164062 24.070312 1.78125 56.605469 1.78125 C 68.195312 1.78125 78.222656 -3.121094 86.691406 -12.257812 L 90.703125 0 Z M 106.75 0 "/></g></g></g><g fill="#000000" fill-opacity="1"><g transform="translate(390.84813, 160.198781)"><g><path d="M 70.199219 -46.578125 L 105.1875 -41.003906 C 99.617188 -13.816406 82.011719 1.78125 56.160156 1.78125 C 24.070312 1.78125 6.015625 -19.164062 6.015625 -55.714844 C 6.015625 -92.484375 24.070312 -113.210938 56.160156 -113.210938 C 82.011719 -113.210938 99.617188 -97.835938 105.1875 -70.421875 L 70.199219 -64.851562 C 68.417969 -75.769531 63.292969 -82.011719 56.382812 -82.011719 C 47.023438 -82.011719 41.675781 -72.652344 41.675781 -55.714844 C 41.675781 -39 47.023438 -29.640625 56.382812 -29.640625 C 63.738281 -29.640625 68.640625 -35.65625 70.199219 -46.578125 Z M 70.199219 -46.578125 "/></g></g></g><g fill="#000000" fill-opacity="1"><g transform="translate(501.83092, 160.198781)"><g><path d="M 56.605469 1.558594 C 31.421875 1.78125 13.59375 -10.25 7.355469 -31.644531 L 36.996094 -39.667969 C 39.667969 -31.421875 46.800781 -26.742188 56.605469 -26.742188 C 67.527344 -26.742188 73.765625 -29.195312 73.765625 -33.652344 C 73.765625 -46.578125 4.457031 -41.453125 4.457031 -78.890625 C 4.457031 -100.730469 22.953125 -113.210938 55.9375 -113.210938 C 81.34375 -113.210938 99.171875 -101.175781 105.1875 -79.78125 L 75.769531 -71.761719 C 73.097656 -80.453125 65.964844 -85.355469 55.9375 -85.355469 C 45.015625 -85.355469 39 -82.679688 39 -78 C 39 -66.632812 108.085938 -70.199219 108.085938 -32.761719 C 108.085938 -10.472656 89.589844 2.003906 56.605469 1.558594 Z M 56.605469 1.558594 "/></g></g></g><g fill="#000000" fill-opacity="1"><g transform="translate(615.488001, 160.198781)"><g><path d="M 43.457031 -83.570312 L 92.707031 -83.570312 L 92.707031 -111.429688 L 7.355469 -111.429688 L 7.355469 0 L 92.707031 0 L 92.707031 -27.855469 L 43.457031 -27.855469 L 43.457031 -42.34375 L 92.707031 -42.34375 L 92.707031 -69.085938 L 43.457031 -69.085938 Z M 43.457031 -83.570312 "/></g></g></g><g fill="#37a169" fill-opacity="1"><g transform="translate(314.441283, 270.500004)"><g><path d="M 7.796875 -89.1875 L 36.796875 -89.1875 C 48.054688 -89.1875 56.828125 -85.5 63.109375 -78.125 C 69.398438 -70.757812 72.546875 -60.015625 72.546875 -45.890625 C 72.546875 -30.898438 69.421875 -19.503906 63.171875 -11.703125 C 56.929688 -3.898438 48.140625 0 36.796875 0 L 7.796875 0 Z M 35.234375 -14.8125 C 41.554688 -14.8125 46.492188 -17.171875 50.046875 -21.890625 C 53.597656 -26.617188 55.375 -33.535156 55.375 -42.640625 L 55.375 -49.140625 C 55.375 -57.367188 53.597656 -63.628906 50.046875 -67.921875 C 46.492188 -72.210938 41.554688 -74.359375 35.234375 -74.359375 L 24.4375 -74.359375 L 24.4375 -14.8125 Z M 35.234375 -14.8125 "/></g></g></g><g fill="#37a169" fill-opacity="1"><g transform="translate(395.298975, 270.500004)"><g><path d="M 32.625 1.5625 C 23.4375 1.5625 16.585938 -1.335938 12.078125 -7.140625 C 7.578125 -12.953125 5.328125 -21.96875 5.328125 -34.1875 C 5.328125 -46.40625 7.578125 -55.414062 12.078125 -61.21875 C 16.585938 -67.03125 23.4375 -69.9375 32.625 -69.9375 C 41.8125 -69.9375 48.660156 -67.03125 53.171875 -61.21875 C 57.679688 -55.414062 59.9375 -46.40625 59.9375 -34.1875 C 59.9375 -21.96875 57.679688 -12.953125 53.171875 -7.140625 C 48.660156 -1.335938 41.8125 1.5625 32.625 1.5625 Z M 32.625 -11.5625 C 36.53125 -11.5625 39.347656 -13.226562 41.078125 -16.5625 C 42.816406 -19.90625 43.6875 -24.957031 43.6875 -31.71875 L 43.6875 -36.65625 C 43.6875 -43.414062 42.816406 -48.460938 41.078125 -51.796875 C 39.347656 -55.140625 36.53125 -56.8125 32.625 -56.8125 C 28.726562 -56.8125 25.910156 -55.140625 24.171875 -51.796875 C 22.441406 -48.460938 21.578125 -43.414062 21.578125 -36.65625 L 21.578125 -31.71875 C 21.578125 -24.957031 22.441406 -19.90625 24.171875 -16.5625 C 25.910156 -13.226562 28.726562 -11.5625 32.625 -11.5625 Z M 32.625 -11.5625 "/></g></g></g><g fill="#37a169" fill-opacity="1"><g transform="translate(464.327013, 270.500004)"><g><path d="M 31.203125 1.5625 C 22.273438 1.5625 15.726562 -1.316406 11.5625 -7.078125 C 7.40625 -12.847656 5.328125 -21.882812 5.328125 -34.1875 C 5.328125 -46.40625 7.425781 -55.414062 11.625 -61.21875 C 15.832031 -67.03125 22.1875 -69.9375 30.6875 -69.9375 C 38.21875 -69.9375 44.082031 -67.703125 48.28125 -63.234375 C 52.488281 -58.773438 54.59375 -51.910156 54.59375 -42.640625 L 38.609375 -42.640625 C 38.609375 -52.085938 35.96875 -56.8125 30.6875 -56.8125 C 27.476562 -56.8125 25.15625 -55.140625 23.71875 -51.796875 C 22.289062 -48.460938 21.578125 -43.414062 21.578125 -36.65625 L 21.578125 -31.71875 C 21.578125 -24.957031 22.332031 -19.90625 23.84375 -16.5625 C 25.363281 -13.226562 27.816406 -11.5625 31.203125 -11.5625 C 33.972656 -11.5625 35.984375 -12.734375 37.234375 -15.078125 C 38.492188 -17.421875 39.125 -20.972656 39.125 -25.734375 L 54.59375 -25.734375 C 54.59375 -16.460938 52.554688 -9.59375 48.484375 -5.125 C 44.410156 -0.664062 38.648438 1.5625 31.203125 1.5625 Z M 31.203125 1.5625 "/></g></g></g><g fill="#37a169" fill-opacity="1"><g transform="translate(527.505238, 270.500004)"><g><path d="M 24.1875 1.5625 C 18.457031 1.5625 14.335938 -0.191406 11.828125 -3.703125 C 9.316406 -7.210938 8.0625 -11.566406 8.0625 -16.765625 L 8.0625 -55.25 L 1.171875 -55.25 L 1.171875 -68.375 L 8.0625 -68.375 L 10.40625 -87.625 L 23.65625 -87.625 L 23.65625 -68.375 L 33.546875 -68.375 L 33.546875 -55.25 L 23.65625 -55.25 L 23.65625 -17.15625 C 23.65625 -15.34375 24.128906 -13.957031 25.078125 -13 C 26.035156 -12.039062 27.382812 -11.5625 29.125 -11.5625 L 33.546875 -11.5625 L 33.546875 0 C 32.410156 0.4375 30.929688 0.804688 29.109375 1.109375 C 27.296875 1.410156 25.65625 1.5625 24.1875 1.5625 Z M 24.1875 1.5625 "/></g></g></g><g fill="#37a169" fill-opacity="1"><g transform="translate(566.894173, 270.500004)"><g><path d="M 32.625 1.5625 C 23.4375 1.5625 16.585938 -1.335938 12.078125 -7.140625 C 7.578125 -12.953125 5.328125 -21.96875 5.328125 -34.1875 C 5.328125 -46.40625 7.578125 -55.414062 12.078125 -61.21875 C 16.585938 -67.03125 23.4375 -69.9375 32.625 -69.9375 C 41.8125 -69.9375 48.660156 -67.03125 53.171875 -61.21875 C 57.679688 -55.414062 59.9375 -46.40625 59.9375 -34.1875 C 59.9375 -21.96875 57.679688 -12.953125 53.171875 -7.140625 C 48.660156 -1.335938 41.8125 1.5625 32.625 1.5625 Z M 32.625 -11.5625 C 36.53125 -11.5625 39.347656 -13.226562 41.078125 -16.5625 C 42.816406 -19.90625 43.6875 -24.957031 43.6875 -31.71875 L 43.6875 -36.65625 C 43.6875 -43.414062 42.816406 -48.460938 41.078125 -51.796875 C 39.347656 -55.140625 36.53125 -56.8125 32.625 -56.8125 C 28.726562 -56.8125 25.910156 -55.140625 24.171875 -51.796875 C 22.441406 -48.460938 21.578125 -43.414062 21.578125 -36.65625 L 21.578125 -31.71875 C 21.578125 -24.957031 22.441406 -19.90625 24.171875 -16.5625 C 25.910156 -13.226562 28.726562 -11.5625 32.625 -11.5625 Z M 32.625 -11.5625 "/></g></g></g><g fill="#37a169" fill-opacity="1"><g transform="translate(635.922206, 270.500004)"><g><path d="M 7.15625 -68.375 L 20.15625 -68.375 L 21.96875 -58.375 L 22.75 -58.375 C 23.875 -61.832031 25.347656 -64.625 27.171875 -66.75 C 28.992188 -68.875 31.460938 -69.9375 34.578125 -69.9375 C 36.222656 -69.9375 37.648438 -69.785156 38.859375 -69.484375 C 40.078125 -69.179688 40.816406 -68.988281 41.078125 -68.90625 L 41.078125 -53.8125 L 35.484375 -53.8125 C 31.671875 -53.8125 28.59375 -52.597656 26.25 -50.171875 C 23.914062 -47.753906 22.75 -43.726562 22.75 -38.09375 L 22.75 0 L 7.15625 0 Z M 7.15625 -68.375 "/></g></g></g></svg>