<svg xmlns="http://www.w3.org/2000/svg" xmlns:xlink="http://www.w3.org/1999/xlink" width="500" zoomAndPan="magnify" viewBox="0 0 375 225" height="300" preserveAspectRatio="xMidYMid meet" version="1.0"><defs><g/><clipPath id="a76ffa9308"><path d="M 3 57 L 156 57 L 156 213.75 L 3 213.75 Z M 3 57 " clip-rule="nonzero"/></clipPath><clipPath id="0466f24cf2"><path d="M 0 11.25 L 159.75 11.25 L 159.75 68 L 0 68 Z M 0 11.25 " clip-rule="nonzero"/></clipPath></defs><rect x="-37.5" width="450" fill="#ffffff" y="-22.5" height="270" fill-opacity="1"/><rect x="-37.5" width="450" fill="#ffffff" y="-22.5" height="270" fill-opacity="1"/><rect x="-37.5" width="450" fill="#ffffff" y="-22.5" height="270" fill-opacity="1"/><g clip-path="url(#a76ffa9308)"><path fill="#37a169" d="M 148.722656 118.539062 C 148.722656 117.53125 148.847656 116.398438 148.847656 115.394531 C 148.847656 99.921875 142.5625 84.453125 130.867188 73.886719 C 117.410156 61.6875 97.542969 57.660156 79.8125 57.660156 C 44.855469 57.660156 10.902344 76.90625 10.902344 115.394531 C 10.902344 116.398438 10.902344 117.40625 11.027344 118.539062 C 3.355469 121.683594 1.597656 141.804688 7.253906 164.695312 C 13.039062 188.34375 23.226562 206.957031 31.523438 204.945312 C 35.546875 203.9375 38.316406 198.40625 39.574219 190.355469 C 50.890625 204.191406 64.972656 213.75 80.0625 213.75 C 95.152344 213.75 109.238281 204.191406 120.554688 190.355469 C 121.433594 196.015625 123.070312 200.417969 125.332031 202.933594 C 125.960938 203.9375 126.84375 204.566406 127.597656 204.820312 C 127.722656 204.820312 127.847656 204.820312 128.101562 204.945312 C 128.226562 204.945312 128.351562 205.070312 128.601562 205.070312 C 136.902344 207.082031 147.085938 188.34375 152.871094 164.824219 C 158.28125 141.679688 156.519531 121.429688 148.722656 118.539062 Z M 148.722656 118.539062 " fill-opacity="1" fill-rule="nonzero"/></g><path fill="#ffffff" d="M 64.597656 161.050781 L 77.171875 153.503906 L 70.882812 160.167969 L 64.597656 166.835938 L 58.308594 160.167969 L 52.023438 153.503906 Z M 64.597656 161.050781 " fill-opacity="1" fill-rule="nonzero"/><path fill="#ffffff" d="M 37.6875 161.050781 L 50.261719 153.503906 L 43.972656 160.167969 L 37.6875 166.835938 L 31.398438 160.167969 L 25.113281 153.503906 Z M 37.6875 161.050781 " fill-opacity="1" fill-rule="nonzero"/><path fill="#ffffff" d="M 95.53125 161.679688 L 108.105469 154.132812 L 101.816406 160.796875 L 95.53125 167.464844 L 89.242188 160.796875 L 82.957031 154.132812 Z M 95.53125 161.679688 " fill-opacity="1" fill-rule="nonzero"/><path fill="#ffffff" d="M 122.1875 161.679688 L 134.765625 154.132812 L 128.476562 160.796875 L 122.1875 167.464844 L 115.902344 160.796875 L 109.613281 154.132812 Z M 122.1875 161.679688 " fill-opacity="1" fill-rule="nonzero"/><path fill="#ffffff" d="M 52.023438 179.414062 L 64.597656 171.867188 L 58.308594 178.53125 L 52.023438 185.199219 L 45.734375 178.53125 L 39.445312 171.867188 Z M 52.023438 179.414062 " fill-opacity="1" fill-rule="nonzero"/><path fill="#ffffff" d="M 80.1875 179.414062 L 92.765625 171.867188 L 86.476562 178.53125 L 80.1875 185.199219 L 73.902344 178.53125 L 67.613281 171.867188 Z M 80.1875 179.414062 " fill-opacity="1" fill-rule="nonzero"/><path fill="#ffffff" d="M 108.859375 179.414062 L 121.433594 171.867188 L 115.148438 178.53125 L 108.859375 185.199219 L 102.574219 178.53125 L 96.285156 171.867188 Z M 108.859375 179.414062 " fill-opacity="1" fill-rule="nonzero"/><path fill="#ffffff" d="M 67.613281 195.890625 L 80.1875 188.34375 L 73.902344 195.007812 L 67.613281 201.675781 L 61.328125 195.007812 L 55.039062 188.34375 Z M 67.613281 195.890625 " fill-opacity="1" fill-rule="nonzero"/><path fill="#ffffff" d="M 94.652344 195.890625 L 107.226562 188.34375 L 100.9375 195.007812 L 94.652344 201.675781 L 88.363281 195.007812 L 82.074219 188.34375 Z M 94.652344 195.890625 " fill-opacity="1" fill-rule="nonzero"/><path fill="#ffffff" d="M 89.996094 131.367188 L 79.9375 129.101562 L 69.878906 131.367188 L 70.382812 131.742188 L 69.878906 131.742188 L 74.90625 138.535156 L 79.9375 145.328125 L 84.96875 138.535156 L 89.996094 131.742188 L 89.496094 131.742188 Z M 89.996094 131.367188 " fill-opacity="1" fill-rule="nonzero"/><path fill="#ffffff" d="M 77.296875 108.601562 C 77.296875 109.457031 77.253906 110.3125 77.171875 111.164062 C 77.085938 112.019531 76.960938 112.863281 76.792969 113.703125 C 76.628906 114.546875 76.417969 115.375 76.171875 116.195312 C 75.921875 117.015625 75.632812 117.820312 75.304688 118.613281 C 74.976562 119.402344 74.613281 120.175781 74.207031 120.933594 C 73.804688 121.6875 73.363281 122.421875 72.890625 123.136719 C 72.414062 123.847656 71.902344 124.535156 71.359375 125.199219 C 70.816406 125.859375 70.242188 126.492188 69.636719 127.101562 C 69.03125 127.707031 68.398438 128.28125 67.734375 128.824219 C 67.070312 129.367188 66.386719 129.878906 65.671875 130.351562 C 64.960938 130.828125 64.226562 131.269531 63.472656 131.671875 C 62.714844 132.078125 61.941406 132.441406 61.152344 132.769531 C 60.359375 133.097656 59.554688 133.386719 58.734375 133.636719 C 57.914062 133.882812 57.085938 134.09375 56.242188 134.257812 C 55.402344 134.425781 54.558594 134.550781 53.707031 134.636719 C 52.851562 134.71875 51.996094 134.761719 51.140625 134.761719 C 50.285156 134.761719 49.429688 134.71875 48.578125 134.636719 C 47.726562 134.550781 46.878906 134.425781 46.039062 134.257812 C 45.199219 134.09375 44.367188 133.882812 43.546875 133.636719 C 42.730469 133.386719 41.921875 133.097656 41.132812 132.769531 C 40.339844 132.441406 39.566406 132.078125 38.8125 131.671875 C 38.054688 131.269531 37.324219 130.828125 36.609375 130.351562 C 35.898438 129.878906 35.210938 129.367188 34.546875 128.824219 C 33.886719 128.28125 33.253906 127.707031 32.648438 127.101562 C 32.039062 126.492188 31.464844 125.859375 30.921875 125.199219 C 30.378906 124.535156 29.871094 123.847656 29.394531 123.136719 C 28.917969 122.421875 28.476562 121.6875 28.074219 120.933594 C 27.671875 120.175781 27.304688 119.402344 26.976562 118.613281 C 26.648438 117.820312 26.359375 117.015625 26.113281 116.195312 C 25.863281 115.375 25.65625 114.546875 25.488281 113.703125 C 25.320312 112.863281 25.195312 112.019531 25.113281 111.164062 C 25.027344 110.3125 24.984375 109.457031 24.984375 108.601562 C 24.984375 107.742188 25.027344 106.890625 25.113281 106.035156 C 25.195312 105.183594 25.320312 104.335938 25.488281 103.496094 C 25.65625 102.65625 25.863281 101.828125 26.113281 101.007812 C 26.359375 100.1875 26.648438 99.382812 26.976562 98.589844 C 27.304688 97.796875 27.671875 97.023438 28.074219 96.269531 C 28.476562 95.511719 28.917969 94.777344 29.394531 94.066406 C 29.871094 93.355469 30.378906 92.667969 30.921875 92.003906 C 31.464844 91.34375 32.039062 90.707031 32.648438 90.101562 C 33.253906 89.496094 33.886719 88.921875 34.546875 88.378906 C 35.210938 87.835938 35.898438 87.324219 36.609375 86.847656 C 37.324219 86.371094 38.054688 85.933594 38.8125 85.527344 C 39.566406 85.125 40.339844 84.757812 41.132812 84.429688 C 41.921875 84.101562 42.730469 83.816406 43.546875 83.566406 C 44.367188 83.316406 45.199219 83.109375 46.039062 82.941406 C 46.878906 82.773438 47.726562 82.648438 48.578125 82.566406 C 49.429688 82.480469 50.285156 82.441406 51.140625 82.4375 C 51.996094 82.441406 52.851562 82.480469 53.707031 82.566406 C 54.558594 82.648438 55.402344 82.773438 56.242188 82.941406 C 57.085938 83.109375 57.914062 83.316406 58.734375 83.566406 C 59.554688 83.816406 60.359375 84.101562 61.152344 84.429688 C 61.941406 84.757812 62.714844 85.125 63.472656 85.527344 C 64.226562 85.933594 64.960938 86.371094 65.671875 86.847656 C 66.386719 87.324219 67.070312 87.835938 67.734375 88.378906 C 68.398438 88.921875 69.03125 89.496094 69.636719 90.101562 C 70.242188 90.707031 70.816406 91.34375 71.359375 92.003906 C 71.902344 92.667969 72.414062 93.355469 72.890625 94.066406 C 73.363281 94.777344 73.804688 95.511719 74.207031 96.269531 C 74.613281 97.023438 74.976562 97.796875 75.304688 98.589844 C 75.632812 99.382812 75.921875 100.1875 76.171875 101.007812 C 76.417969 101.828125 76.628906 102.65625 76.792969 103.496094 C 76.960938 104.335938 77.085938 105.183594 77.171875 106.035156 C 77.253906 106.890625 77.296875 107.742188 77.296875 108.601562 Z M 77.296875 108.601562 " fill-opacity="1" fill-rule="nonzero"/><path fill="#000000" d="M 64.472656 108.601562 C 64.472656 109.476562 64.386719 110.34375 64.214844 111.203125 C 64.042969 112.058594 63.792969 112.894531 63.457031 113.703125 C 63.121094 114.511719 62.710938 115.28125 62.222656 116.007812 C 61.738281 116.734375 61.1875 117.410156 60.566406 118.027344 C 59.949219 118.648438 59.273438 119.199219 58.546875 119.6875 C 57.820312 120.171875 57.050781 120.582031 56.242188 120.917969 C 55.433594 121.253906 54.601562 121.507812 53.742188 121.675781 C 52.882812 121.847656 52.015625 121.933594 51.140625 121.933594 C 50.265625 121.933594 49.398438 121.847656 48.539062 121.675781 C 47.683594 121.507812 46.847656 121.253906 46.039062 120.917969 C 45.230469 120.582031 44.464844 120.171875 43.734375 119.6875 C 43.007812 119.199219 42.335938 118.648438 41.714844 118.027344 C 41.097656 117.410156 40.542969 116.734375 40.058594 116.007812 C 39.570312 115.28125 39.160156 114.511719 38.828125 113.703125 C 38.492188 112.894531 38.238281 112.058594 38.066406 111.203125 C 37.898438 110.34375 37.8125 109.476562 37.8125 108.601562 C 37.8125 107.726562 37.898438 106.859375 38.066406 106 C 38.238281 105.140625 38.492188 104.308594 38.828125 103.5 C 39.160156 102.691406 39.570312 101.921875 40.058594 101.195312 C 40.542969 100.464844 41.097656 99.792969 41.714844 99.171875 C 42.335938 98.554688 43.007812 98 43.734375 97.515625 C 44.464844 97.027344 45.230469 96.617188 46.039062 96.285156 C 46.847656 95.949219 47.683594 95.695312 48.539062 95.523438 C 49.398438 95.355469 50.265625 95.269531 51.140625 95.269531 C 52.015625 95.269531 52.882812 95.355469 53.742188 95.523438 C 54.601562 95.695312 55.433594 95.949219 56.242188 96.285156 C 57.050781 96.617188 57.820312 97.027344 58.546875 97.515625 C 59.273438 98 59.949219 98.554688 60.566406 99.171875 C 61.183594 99.792969 61.738281 100.464844 62.222656 101.195312 C 62.710938 101.921875 63.121094 102.691406 63.457031 103.5 C 63.792969 104.308594 64.042969 105.140625 64.214844 106 C 64.386719 106.859375 64.472656 107.726562 64.472656 108.601562 Z M 64.472656 108.601562 " fill-opacity="1" fill-rule="nonzero"/><path fill="#ffffff" d="M 60.070312 113.128906 C 60.070312 113.535156 60.03125 113.933594 59.949219 114.332031 C 59.871094 114.726562 59.753906 115.113281 59.601562 115.488281 C 59.445312 115.859375 59.257812 116.214844 59.03125 116.554688 C 58.804688 116.890625 58.550781 117.199219 58.265625 117.488281 C 57.980469 117.773438 57.667969 118.027344 57.332031 118.253906 C 56.996094 118.476562 56.640625 118.667969 56.265625 118.824219 C 55.890625 118.976562 55.507812 119.09375 55.109375 119.171875 C 54.714844 119.253906 54.3125 119.292969 53.90625 119.292969 C 53.503906 119.292969 53.101562 119.253906 52.707031 119.171875 C 52.308594 119.09375 51.921875 118.976562 51.550781 118.824219 C 51.175781 118.667969 50.820312 118.476562 50.484375 118.253906 C 50.148438 118.027344 49.835938 117.773438 49.550781 117.488281 C 49.265625 117.199219 49.007812 116.890625 48.785156 116.554688 C 48.558594 116.214844 48.371094 115.859375 48.214844 115.488281 C 48.058594 115.113281 47.945312 114.726562 47.863281 114.332031 C 47.785156 113.933594 47.746094 113.535156 47.746094 113.128906 C 47.746094 112.722656 47.785156 112.324219 47.863281 111.925781 C 47.945312 111.53125 48.058594 111.144531 48.214844 110.769531 C 48.371094 110.398438 48.558594 110.042969 48.785156 109.703125 C 49.007812 109.367188 49.265625 109.058594 49.550781 108.769531 C 49.835938 108.484375 50.148438 108.230469 50.484375 108.003906 C 50.820312 107.78125 51.175781 107.589844 51.550781 107.433594 C 51.921875 107.28125 52.308594 107.164062 52.707031 107.085938 C 53.101562 107.003906 53.503906 106.964844 53.90625 106.964844 C 54.3125 106.964844 54.714844 107.003906 55.109375 107.085938 C 55.507812 107.164062 55.890625 107.28125 56.265625 107.433594 C 56.640625 107.589844 56.996094 107.78125 57.332031 108.003906 C 57.667969 108.230469 57.980469 108.484375 58.265625 108.769531 C 58.550781 109.058594 58.804688 109.367188 59.03125 109.703125 C 59.257812 110.042969 59.445312 110.398438 59.601562 110.769531 C 59.753906 111.144531 59.871094 111.53125 59.953125 111.925781 C 60.03125 112.324219 60.070312 112.722656 60.070312 113.128906 Z M 60.070312 113.128906 " fill-opacity="1" fill-rule="nonzero"/><path fill="#ffffff" d="M 134.890625 108.601562 C 134.890625 109.457031 134.847656 110.3125 134.765625 111.164062 C 134.679688 112.019531 134.554688 112.863281 134.386719 113.703125 C 134.21875 114.546875 134.011719 115.375 133.765625 116.195312 C 133.515625 117.015625 133.226562 117.820312 132.898438 118.613281 C 132.570312 119.402344 132.207031 120.175781 131.800781 120.933594 C 131.398438 121.6875 130.957031 122.421875 130.480469 123.136719 C 130.007812 123.847656 129.496094 124.535156 128.953125 125.199219 C 128.410156 125.859375 127.835938 126.492188 127.230469 127.101562 C 126.625 127.707031 125.988281 128.28125 125.328125 128.824219 C 124.664062 129.367188 123.976562 129.878906 123.265625 130.351562 C 122.554688 130.828125 121.820312 131.269531 121.0625 131.671875 C 120.308594 132.078125 119.535156 132.441406 118.742188 132.769531 C 117.953125 133.097656 117.148438 133.386719 116.328125 133.636719 C 115.507812 133.882812 114.675781 134.09375 113.835938 134.257812 C 112.996094 134.425781 112.152344 134.550781 111.296875 134.636719 C 110.445312 134.71875 109.589844 134.761719 108.734375 134.761719 C 107.878906 134.761719 107.023438 134.71875 106.171875 134.636719 C 105.316406 134.550781 104.472656 134.425781 103.632812 134.257812 C 102.792969 134.09375 101.960938 133.882812 101.140625 133.636719 C 100.320312 133.386719 99.515625 133.097656 98.726562 132.769531 C 97.933594 132.441406 97.160156 132.078125 96.40625 131.671875 C 95.648438 131.269531 94.914062 130.828125 94.203125 130.351562 C 93.492188 129.878906 92.804688 129.367188 92.140625 128.824219 C 91.480469 128.28125 90.84375 127.707031 90.238281 127.101562 C 89.632812 126.492188 89.058594 125.859375 88.515625 125.199219 C 87.972656 124.535156 87.460938 123.847656 86.988281 123.136719 C 86.511719 122.421875 86.070312 121.6875 85.667969 120.933594 C 85.261719 120.175781 84.898438 119.402344 84.570312 118.613281 C 84.242188 117.820312 83.953125 117.015625 83.703125 116.195312 C 83.457031 115.375 83.25 114.546875 83.082031 113.703125 C 82.914062 112.863281 82.789062 112.019531 82.703125 111.164062 C 82.621094 110.3125 82.578125 109.457031 82.578125 108.601562 C 82.578125 107.742188 82.621094 106.890625 82.703125 106.035156 C 82.789062 105.183594 82.914062 104.335938 83.082031 103.496094 C 83.25 102.65625 83.457031 101.828125 83.703125 101.007812 C 83.953125 100.1875 84.242188 99.382812 84.570312 98.589844 C 84.898438 97.796875 85.261719 97.023438 85.667969 96.269531 C 86.070312 95.511719 86.511719 94.777344 86.988281 94.066406 C 87.460938 93.355469 87.972656 92.667969 88.515625 92.003906 C 89.058594 91.34375 89.632812 90.707031 90.238281 90.101562 C 90.84375 89.496094 91.480469 88.921875 92.140625 88.378906 C 92.804688 87.835938 93.492188 87.324219 94.203125 86.847656 C 94.914062 86.371094 95.648438 85.933594 96.40625 85.527344 C 97.160156 85.125 97.933594 84.757812 98.726562 84.429688 C 99.515625 84.101562 100.320312 83.816406 101.140625 83.566406 C 101.960938 83.316406 102.792969 83.109375 103.632812 82.941406 C 104.472656 82.773438 105.316406 82.648438 106.171875 82.566406 C 107.023438 82.480469 107.878906 82.441406 108.734375 82.4375 C 109.589844 82.441406 110.445312 82.480469 111.296875 82.566406 C 112.152344 82.648438 112.996094 82.773438 113.835938 82.941406 C 114.675781 83.109375 115.507812 83.316406 116.328125 83.566406 C 117.148438 83.816406 117.953125 84.101562 118.742188 84.429688 C 119.535156 84.757812 120.308594 85.125 121.0625 85.527344 C 121.820312 85.933594 122.554688 86.371094 123.265625 86.847656 C 123.976562 87.324219 124.664062 87.835938 125.328125 88.378906 C 125.988281 88.921875 126.625 89.496094 127.230469 90.101562 C 127.835938 90.707031 128.410156 91.34375 128.953125 92.003906 C 129.496094 92.667969 130.007812 93.355469 130.480469 94.066406 C 130.957031 94.777344 131.398438 95.511719 131.800781 96.269531 C 132.207031 97.023438 132.570312 97.796875 132.898438 98.589844 C 133.226562 99.382812 133.515625 100.1875 133.765625 101.007812 C 134.011719 101.828125 134.21875 102.65625 134.386719 103.496094 C 134.554688 104.335938 134.679688 105.183594 134.765625 106.035156 C 134.847656 106.890625 134.890625 107.742188 134.890625 108.601562 Z M 134.890625 108.601562 " fill-opacity="1" fill-rule="nonzero"/><path fill="#000000" d="M 122.0625 108.601562 C 122.0625 109.476562 121.976562 110.34375 121.808594 111.203125 C 121.636719 112.058594 121.382812 112.894531 121.050781 113.703125 C 120.714844 114.511719 120.304688 115.28125 119.816406 116.007812 C 119.332031 116.734375 118.777344 117.410156 118.160156 118.027344 C 117.539062 118.648438 116.867188 119.199219 116.140625 119.6875 C 115.410156 120.171875 114.644531 120.582031 113.835938 120.917969 C 113.027344 121.253906 112.191406 121.507812 111.335938 121.675781 C 110.476562 121.847656 109.609375 121.933594 108.734375 121.933594 C 107.859375 121.933594 106.992188 121.847656 106.132812 121.675781 C 105.277344 121.507812 104.441406 121.253906 103.632812 120.917969 C 102.824219 120.582031 102.054688 120.171875 101.328125 119.6875 C 100.601562 119.199219 99.929688 118.648438 99.308594 118.027344 C 98.691406 117.410156 98.136719 116.734375 97.652344 116.007812 C 97.164062 115.28125 96.753906 114.511719 96.417969 113.703125 C 96.085938 112.894531 95.832031 112.058594 95.660156 111.203125 C 95.492188 110.34375 95.40625 109.476562 95.40625 108.601562 C 95.40625 107.726562 95.492188 106.859375 95.660156 106 C 95.832031 105.140625 96.085938 104.308594 96.417969 103.5 C 96.753906 102.691406 97.164062 101.921875 97.652344 101.195312 C 98.136719 100.464844 98.691406 99.792969 99.308594 99.171875 C 99.929688 98.554688 100.601562 98 101.328125 97.515625 C 102.054688 97.027344 102.824219 96.617188 103.632812 96.285156 C 104.441406 95.949219 105.277344 95.695312 106.132812 95.523438 C 106.992188 95.355469 107.859375 95.269531 108.734375 95.269531 C 109.609375 95.269531 110.476562 95.355469 111.335938 95.523438 C 112.191406 95.695312 113.027344 95.949219 113.835938 96.285156 C 114.644531 96.617188 115.410156 97.027344 116.140625 97.515625 C 116.867188 98 117.539062 98.554688 118.160156 99.171875 C 118.777344 99.792969 119.332031 100.464844 119.816406 101.195312 C 120.304688 101.921875 120.714844 102.691406 121.050781 103.5 C 121.382812 104.308594 121.636719 105.140625 121.808594 106 C 121.976562 106.859375 122.0625 107.726562 122.0625 108.601562 Z M 122.0625 108.601562 " fill-opacity="1" fill-rule="nonzero"/><path fill="#ffffff" d="M 112.128906 113.128906 C 112.128906 113.535156 112.089844 113.933594 112.011719 114.332031 C 111.933594 114.726562 111.816406 115.113281 111.660156 115.488281 C 111.503906 115.859375 111.316406 116.214844 111.089844 116.554688 C 110.867188 116.890625 110.609375 117.199219 110.324219 117.488281 C 110.039062 117.773438 109.726562 118.027344 109.390625 118.253906 C 109.054688 118.476562 108.699219 118.667969 108.324219 118.824219 C 107.953125 118.976562 107.566406 119.09375 107.167969 119.171875 C 106.773438 119.253906 106.371094 119.292969 105.96875 119.292969 C 105.5625 119.292969 105.164062 119.253906 104.765625 119.171875 C 104.367188 119.09375 103.984375 118.976562 103.609375 118.824219 C 103.234375 118.667969 102.882812 118.476562 102.542969 118.253906 C 102.207031 118.027344 101.898438 117.773438 101.609375 117.488281 C 101.324219 117.199219 101.070312 116.890625 100.84375 116.554688 C 100.621094 116.214844 100.429688 115.859375 100.273438 115.488281 C 100.121094 115.113281 100.003906 114.726562 99.925781 114.332031 C 99.84375 113.933594 99.804688 113.535156 99.804688 113.128906 C 99.804688 112.722656 99.84375 112.324219 99.925781 111.925781 C 100.003906 111.53125 100.121094 111.144531 100.273438 110.769531 C 100.429688 110.398438 100.621094 110.042969 100.84375 109.703125 C 101.070312 109.367188 101.324219 109.058594 101.609375 108.769531 C 101.898438 108.484375 102.207031 108.230469 102.542969 108.003906 C 102.882812 107.78125 103.234375 107.589844 103.609375 107.433594 C 103.984375 107.28125 104.367188 107.164062 104.765625 107.085938 C 105.164062 107.003906 105.5625 106.964844 105.96875 106.964844 C 106.371094 106.964844 106.773438 107.003906 107.171875 107.085938 C 107.566406 107.164062 107.953125 107.28125 108.324219 107.433594 C 108.699219 107.589844 109.054688 107.78125 109.390625 108.003906 C 109.726562 108.230469 110.039062 108.484375 110.324219 108.769531 C 110.609375 109.058594 110.867188 109.367188 111.089844 109.703125 C 111.316406 110.042969 111.503906 110.398438 111.660156 110.769531 C 111.816406 111.144531 111.933594 111.53125 112.011719 111.925781 C 112.089844 112.324219 112.128906 112.722656 112.128906 113.128906 Z M 112.128906 113.128906 " fill-opacity="1" fill-rule="nonzero"/><g clip-path="url(#0466f24cf2)"><path fill="#000000" d="M 159.035156 36.027344 L 81.574219 11.25 L 0.84375 36.027344 L 0.0859375 36.40625 L 0.84375 36.78125 L 35.171875 53.132812 C 35.171875 53.511719 35.046875 53.886719 35.046875 54.390625 L 35.046875 67.722656 C 47.621094 59.421875 63.589844 55.273438 79.8125 55.273438 C 94.902344 55.273438 111.625 58.289062 124.578125 66.71875 L 124.578125 54.265625 C 124.578125 54.015625 124.578125 53.636719 124.578125 53.386719 L 158.90625 36.65625 L 159.664062 36.28125 Z M 159.035156 36.027344 " fill-opacity="1" fill-rule="nonzero"/></g><path fill="#ffffff" d="M 13.039062 35.902344 C 15.933594 36.40625 13.039062 41.5625 13.039062 41.5625 C 13.039062 41.5625 10.273438 36.40625 13.039062 35.902344 Z M 13.039062 35.902344 " fill-opacity="1" fill-rule="nonzero"/><path fill="#fca203" d="M 13.039062 41.4375 L 16.058594 79.167969 L 10.148438 79.167969 Z M 13.039062 41.4375 " fill-opacity="1" fill-rule="nonzero"/><g fill="#000000" fill-opacity="1"><g transform="translate(166.146627, 109.512591)"><g><path d="M 51.082031 0 L 51.402344 -28.261719 L 26.875 -28.261719 L 26.875 -18.769531 L 31.78125 -18.769531 C 30.714844 -15.785156 29.113281 -14.183594 27.195312 -14.183594 C 22.503906 -14.183594 19.941406 -18.664062 19.941406 -26.660156 C 19.941406 -34.765625 22.503906 -39.246094 27.195312 -39.246094 C 30.820312 -39.246094 33.167969 -36.367188 34.019531 -31.140625 L 50.871094 -34.125 C 48.738281 -46.925781 40.417969 -54.175781 27.085938 -54.175781 C 11.519531 -54.175781 2.878906 -44.257812 2.878906 -26.660156 C 2.878906 -9.171875 11.519531 0.851562 27.085938 0.851562 C 32.632812 0.851562 37.433594 -1.492188 41.484375 -5.867188 L 43.40625 0 Z M 51.082031 0 "/></g></g></g><g fill="#000000" fill-opacity="1"><g transform="translate(220.960323, 109.512591)"><g><path d="M 33.59375 -22.289062 L 50.335938 -19.621094 C 47.671875 -6.613281 39.246094 0.851562 26.875 0.851562 C 11.519531 0.851562 2.878906 -9.171875 2.878906 -26.660156 C 2.878906 -44.257812 11.519531 -54.175781 26.875 -54.175781 C 39.246094 -54.175781 47.671875 -46.816406 50.335938 -33.699219 L 33.59375 -31.035156 C 32.738281 -36.257812 30.289062 -39.246094 26.980469 -39.246094 C 22.503906 -39.246094 19.941406 -34.765625 19.941406 -26.660156 C 19.941406 -18.664062 22.503906 -14.183594 26.980469 -14.183594 C 30.5 -14.183594 32.847656 -17.0625 33.59375 -22.289062 Z M 33.59375 -22.289062 "/></g></g></g><g fill="#000000" fill-opacity="1"><g transform="translate(274.067751, 109.512591)"><g><path d="M 27.085938 0.746094 C 15.035156 0.851562 6.503906 -4.90625 3.519531 -15.144531 L 17.703125 -18.984375 C 18.984375 -15.035156 22.394531 -12.796875 27.085938 -12.796875 C 32.3125 -12.796875 35.300781 -13.96875 35.300781 -16.101562 C 35.300781 -22.289062 2.132812 -19.835938 2.132812 -37.753906 C 2.132812 -48.203125 10.984375 -54.175781 26.769531 -54.175781 C 38.925781 -54.175781 47.457031 -48.417969 50.335938 -38.179688 L 36.257812 -34.339844 C 34.980469 -38.5 31.566406 -40.84375 26.769531 -40.84375 C 21.542969 -40.84375 18.664062 -39.566406 18.664062 -37.324219 C 18.664062 -31.886719 51.722656 -33.59375 51.722656 -15.675781 C 51.722656 -5.011719 42.871094 0.960938 27.085938 0.746094 Z M 27.085938 0.746094 "/></g></g></g><g fill="#000000" fill-opacity="1"><g transform="translate(328.454879, 109.512591)"><g><path d="M 20.796875 -39.992188 L 44.363281 -39.992188 L 44.363281 -53.324219 L 3.519531 -53.324219 L 3.519531 0 L 44.363281 0 L 44.363281 -13.332031 L 20.796875 -13.332031 L 20.796875 -20.261719 L 44.363281 -20.261719 L 44.363281 -33.058594 L 20.796875 -33.058594 Z M 20.796875 -39.992188 "/></g></g></g><g fill="#37a169" fill-opacity="1"><g transform="translate(175.134287, 176.114724)"><g><path d="M 4.125 -47.234375 L 19.484375 -47.234375 C 25.453125 -47.234375 30.097656 -45.28125 33.421875 -41.375 C 36.753906 -37.46875 38.421875 -31.773438 38.421875 -24.296875 C 38.421875 -16.359375 36.765625 -10.320312 33.453125 -6.1875 C 30.148438 -2.0625 25.492188 0 19.484375 0 L 4.125 0 Z M 18.65625 -7.84375 C 22.007812 -7.84375 24.625 -9.09375 26.5 -11.59375 C 28.382812 -14.101562 29.328125 -17.765625 29.328125 -22.578125 L 29.328125 -26.015625 C 29.328125 -30.378906 28.382812 -33.695312 26.5 -35.96875 C 24.625 -38.238281 22.007812 -39.375 18.65625 -39.375 L 12.9375 -39.375 L 12.9375 -7.84375 Z M 18.65625 -7.84375 "/></g></g></g><g fill="#37a169" fill-opacity="1"><g transform="translate(217.957681, 176.114724)"><g><path d="M 17.28125 0.828125 C 12.414062 0.828125 8.789062 -0.707031 6.40625 -3.78125 C 4.019531 -6.863281 2.828125 -11.640625 2.828125 -18.109375 C 2.828125 -24.578125 4.019531 -29.347656 6.40625 -32.421875 C 8.789062 -35.492188 12.414062 -37.03125 17.28125 -37.03125 C 22.144531 -37.03125 25.769531 -35.492188 28.15625 -32.421875 C 30.539062 -29.347656 31.734375 -24.578125 31.734375 -18.109375 C 31.734375 -11.640625 30.539062 -6.863281 28.15625 -3.78125 C 25.769531 -0.707031 22.144531 0.828125 17.28125 0.828125 Z M 17.28125 -6.125 C 19.34375 -6.125 20.832031 -7.003906 21.75 -8.765625 C 22.664062 -10.535156 23.125 -13.210938 23.125 -16.796875 L 23.125 -19.40625 C 23.125 -22.988281 22.664062 -25.660156 21.75 -27.421875 C 20.832031 -29.191406 19.34375 -30.078125 17.28125 -30.078125 C 15.21875 -30.078125 13.722656 -29.191406 12.796875 -27.421875 C 11.878906 -25.660156 11.421875 -22.988281 11.421875 -19.40625 L 11.421875 -16.796875 C 11.421875 -13.210938 11.878906 -10.535156 12.796875 -8.765625 C 13.722656 -7.003906 15.21875 -6.125 17.28125 -6.125 Z M 17.28125 -6.125 "/></g></g></g><g fill="#37a169" fill-opacity="1"><g transform="translate(254.51594, 176.114724)"><g><path d="M 16.515625 0.828125 C 11.796875 0.828125 8.332031 -0.695312 6.125 -3.75 C 3.925781 -6.800781 2.828125 -11.585938 2.828125 -18.109375 C 2.828125 -24.578125 3.9375 -29.347656 6.15625 -32.421875 C 8.382812 -35.492188 11.75 -37.03125 16.25 -37.03125 C 20.238281 -37.03125 23.347656 -35.847656 25.578125 -33.484375 C 27.804688 -31.128906 28.921875 -27.492188 28.921875 -22.578125 L 20.453125 -22.578125 C 20.453125 -27.578125 19.050781 -30.078125 16.25 -30.078125 C 14.550781 -30.078125 13.320312 -29.191406 12.5625 -27.421875 C 11.800781 -25.660156 11.421875 -22.988281 11.421875 -19.40625 L 11.421875 -16.796875 C 11.421875 -13.210938 11.820312 -10.535156 12.625 -8.765625 C 13.4375 -7.003906 14.734375 -6.125 16.515625 -6.125 C 17.984375 -6.125 19.050781 -6.742188 19.71875 -7.984375 C 20.382812 -9.222656 20.71875 -11.101562 20.71875 -13.625 L 28.921875 -13.625 C 28.921875 -8.71875 27.835938 -5.082031 25.671875 -2.71875 C 23.515625 -0.351562 20.460938 0.828125 16.515625 0.828125 Z M 16.515625 0.828125 "/></g></g></g><g fill="#37a169" fill-opacity="1"><g transform="translate(287.976049, 176.114724)"><g><path d="M 12.8125 0.828125 C 9.78125 0.828125 7.597656 -0.0976562 6.265625 -1.953125 C 4.929688 -3.816406 4.265625 -6.125 4.265625 -8.875 L 4.265625 -29.265625 L 0.625 -29.265625 L 0.625 -36.21875 L 4.265625 -36.21875 L 5.5 -46.40625 L 12.53125 -46.40625 L 12.53125 -36.21875 L 17.765625 -36.21875 L 17.765625 -29.265625 L 12.53125 -29.265625 L 12.53125 -9.09375 C 12.53125 -8.125 12.78125 -7.382812 13.28125 -6.875 C 13.789062 -6.375 14.503906 -6.125 15.421875 -6.125 L 17.765625 -6.125 L 17.765625 0 C 17.160156 0.226562 16.375 0.421875 15.40625 0.578125 C 14.445312 0.742188 13.582031 0.828125 12.8125 0.828125 Z M 12.8125 0.828125 "/></g></g></g><g fill="#37a169" fill-opacity="1"><g transform="translate(308.837036, 176.114724)"><g><path d="M 17.28125 0.828125 C 12.414062 0.828125 8.789062 -0.707031 6.40625 -3.78125 C 4.019531 -6.863281 2.828125 -11.640625 2.828125 -18.109375 C 2.828125 -24.578125 4.019531 -29.347656 6.40625 -32.421875 C 8.789062 -35.492188 12.414062 -37.03125 17.28125 -37.03125 C 22.144531 -37.03125 25.769531 -35.492188 28.15625 -32.421875 C 30.539062 -29.347656 31.734375 -24.578125 31.734375 -18.109375 C 31.734375 -11.640625 30.539062 -6.863281 28.15625 -3.78125 C 25.769531 -0.707031 22.144531 0.828125 17.28125 0.828125 Z M 17.28125 -6.125 C 19.34375 -6.125 20.832031 -7.003906 21.75 -8.765625 C 22.664062 -10.535156 23.125 -13.210938 23.125 -16.796875 L 23.125 -19.40625 C 23.125 -22.988281 22.664062 -25.660156 21.75 -27.421875 C 20.832031 -29.191406 19.34375 -30.078125 17.28125 -30.078125 C 15.21875 -30.078125 13.722656 -29.191406 12.796875 -27.421875 C 11.878906 -25.660156 11.421875 -22.988281 11.421875 -19.40625 L 11.421875 -16.796875 C 11.421875 -13.210938 11.878906 -10.535156 12.796875 -8.765625 C 13.722656 -7.003906 15.21875 -6.125 17.28125 -6.125 Z M 17.28125 -6.125 "/></g></g></g><g fill="#37a169" fill-opacity="1"><g transform="translate(345.395289, 176.114724)"><g><path d="M 3.78125 -36.21875 L 10.671875 -36.21875 L 11.640625 -30.90625 L 12.046875 -30.90625 C 12.640625 -32.75 13.414062 -34.226562 14.375 -35.34375 C 15.34375 -36.46875 16.65625 -37.03125 18.3125 -37.03125 C 19.1875 -37.03125 19.941406 -36.953125 20.578125 -36.796875 C 21.222656 -36.640625 21.613281 -36.535156 21.75 -36.484375 L 21.75 -28.5 L 18.796875 -28.5 C 16.773438 -28.5 15.144531 -27.851562 13.90625 -26.5625 C 12.664062 -25.28125 12.046875 -23.148438 12.046875 -20.171875 L 12.046875 0 L 3.78125 0 Z M 3.78125 -36.21875 "/></g></g></g></svg>