<svg viewBox="0 0 512 418" xmlns="http://www.w3.org/2000/svg" xml:space="preserve" fill-rule="evenodd" clip-rule="evenodd" stroke-linejoin="round" stroke-miterlimit="2"><path d="M327.1 8.28a306.1 306.1 0 0 1 66.06 24.24 7.5 7.5 0 0 1-2.13 14.2c-2.56.4-4.87-.97-7.1-2.01A285.97 285.97 0 0 0 258 15c-46.52-.28-92.72 11.22-134 32.59-40.75 20.95-76.53 51.27-104.78 87.28-6.32 8.3-5.43 21.18 2.07 28.46 3.85 3.8 9.41 5.69 14.75 4.43 4.24-.94 7.54-3.6 10.17-6.96 25.87-32.61 58.53-59.74 95.89-78.23 34.09-16.97 71.81-26.43 109.9-27.1a256.96 256.96 0 0 1 112.45 23.76c39.48 18.12 74.11 45.8 101.39 79.52 2.32 2.89 5.03 5.3 8.61 6.48a15.75 15.75 0 0 0 15.69-3.44c8.01-7.16 9.09-20.44 2.66-28.96-21.13-26.4-46.34-49.81-74.58-68.44-2.31-1.6-4.45-2.92-5.14-5.85a7.52 7.52 0 0 1 5.88-9.17c3.83-.77 6.53 1.88 9.5 3.79 28.72 19.3 54.22 43.1 75.88 70.08 4.92 6.26 7.43 14 7.66 21.93v2.34c-.46 6.98-2.52 13.77-6.59 19.5-5.18 7.46-13.3 12.73-22.37 13.8a30.88 30.88 0 0 1-23.31-6.93c-2.99-2.47-5.23-5.34-7.69-8.3-29.17-35.18-66.75-63.08-109.58-79.31a240.06 240.06 0 0 0-111.93-14.4c-37.33 4.1-73.35 17.14-105.03 37.24a272.12 272.12 0 0 0-64.63 57.39c-3.2 3.94-6.01 7.79-10.23 10.77a30.66 30.66 0 0 1-27.66 4.29C9.16 176.89.33 163.27 0 148.9v-1.91a36.96 36.96 0 0 1 7.68-21.72 346.62 346.62 0 0 1 54.06-54.91C97.81 41.1 139.91 19.62 185.09 8.6a302.86 302.86 0 0 1 142.01-.33Z" fill-rule="nonzero"/><path d="M334.76 125.94c33.98 13.53 63.84 35.59 87.8 63.1 7.46 8.93 9.98 21.27 7.23 32.5-2.59 10.84-10.22 20.28-20.77 24.2a30.69 30.69 0 0 1-27.18-2.95c-4.84-3.01-8.01-7.1-11.86-11.16a166.43 166.43 0 0 0-39.85-31.14 150.75 150.75 0 0 0-104.4-15.98c-33 6.79-62.55 24.9-85.02 49.82-4.62 5.39-9.42 10.17-16.24 12.66-11.27 4.4-24.26 1.4-32.73-7.13-13.1-12.8-14.2-35.01-2.6-49.15 15.37-18 33.4-33.87 53.42-46.54 27.85-17.62 59.59-28.9 92.41-32.21a210.58 210.58 0 0 1 99.79 13.98Zm-74.72-.05c-25.59-.42-51.4 4.06-75.2 13.52-30.9 12.08-58.38 31.94-80.43 56.64-2.32 2.57-4.59 4.83-6.11 8-4.18 8.63-2.36 19.93 5.11 26.18 4.59 3.9 11.1 4.9 16.6 2.38 3.95-1.73 6.33-4.75 9.14-7.85 22.49-25.17 51.67-44.01 84.36-52.78a165.76 165.76 0 0 1 42.5-5.67 165.52 165.52 0 0 1 81.89 21.33c17.96 10.04 33.84 23.23 47.49 38.59 3.68 4.22 8.87 6.92 14.58 6.35 5.85-.56 10.66-4.47 13.36-9.55a22.77 22.77 0 0 0-.24-21.44c-1.45-2.54-3.42-4.54-5.39-6.67-15.83-17.43-34.48-32.55-55.09-44a197.16 197.16 0 0 0-92.57-25.03Z"/><path d="M259.03 221.76c25.3.56 49.95 9.5 70.14 24.66 4.75 3.65 10.05 7.62 13.42 12.6 7.27 10.56 8.31 24.7 3.07 36.35-4.34 9.67-13.08 17.3-23.64 19.2-9.22 1.75-18.78-1.08-25.9-7.1a63.16 63.16 0 0 0-22.36-12.67c-3.68-1.04-6.15-4.21-5.77-8.1a7.43 7.43 0 0 1 9.01-6.51c10.29 2.8 20.01 8.42 28.13 15.29 3.11 2.62 6.72 4.45 10.86 4.58 5.66.2 10.84-2.85 14.04-7.4 5.99-8.45 5.17-21.33-2.66-28.38A109.35 109.35 0 0 0 285 240.74a104.8 104.8 0 0 0-60.01.76 110.15 110.15 0 0 0-40.6 23.54c-9.56 8.76-8.15 26.38 2.97 33.23 5.89 3.73 13.43 2.86 18.69-1.57 9.55-8.28 20.61-14.52 32.96-17.45a7.43 7.43 0 0 1 7.75 2.63 7.52 7.52 0 0 1-.14 9.37c-1.75 2.19-4.35 2.53-6.88 3.35-8.82 2.54-16.67 7.23-23.57 13.22-6.64 5.73-15.45 8.68-24.2 7.62-10.8-1.22-20-8.42-24.89-17.97-7.14-13.94-4.76-32.13 6.73-43.05 22.94-21.15 53.91-33.47 85.22-32.66Z" fill-rule="nonzero"/><path d="M247.51 340.43a39.22 39.22 0 0 1 16.98 0c14.48 3.16 26.19 15.02 29.32 29.48 3.45 15.04-2.8 31.24-15.39 40.13-12.48 9.06-30.07 9.6-43.02 1.18a38.9 38.9 0 0 1-17.75-38.35c2.1-15.74 14.36-29.02 29.86-32.44Zm1.99 14.95a24.04 24.04 0 0 0-15.6 14.23 24 24 0 0 0 2.27 21.87 23.76 23.76 0 0 0 20.84 10.73 23.86 23.86 0 0 0 20.63-14.04 23.99 23.99 0 0 0-3.73-25.47 23.74 23.74 0 0 0-24.41-7.32Z"/></svg>