<svg viewBox="0 0 27 28" xmlns="http://www.w3.org/2000/svg" xml:space="preserve" fill-rule="evenodd" clip-rule="evenodd" stroke-linecap="round" stroke-linejoin="round"><path d="M.5 17.26c0-.81 0-1.22.16-1.53.14-.27.36-.49.63-.63.3-.16.71-.16 1.52-.16h1.16c.8 0 1.21 0 1.52.16.27.14.5.36.63.63.16.31.16.72.16 1.53v6.93c0 .8 0 1.21-.16 1.52-.14.27-.36.5-.63.63-.31.16-.71.16-1.52.16H2.8c-.8 0-1.21 0-1.52-.16-.27-.14-.5-.36-.63-.63C.5 25.41.5 25 .5 24.2v-6.94ZM10.61 2.81c0-.8 0-1.21.16-1.52.14-.27.36-.5.63-.63.3-.16.71-.16 1.52-.16h1.16c.8 0 1.21 0 1.52.16.27.14.5.36.63.63.16.3.16.71.16 1.52V24.2c0 .8 0 1.21-.16 1.52-.14.27-.36.5-.63.63-.3.16-.71.16-1.52.16h-1.16c-.8 0-1.21 0-1.52-.16-.27-.14-.5-.36-.63-.63-.16-.3-.16-.71-.16-1.52V2.8v.01Zm10.11 8.67c0-.81 0-1.22.16-1.52.14-.28.36-.5.63-.64.31-.15.71-.15 1.52-.15h1.16c.8 0 1.21 0 1.52.15.27.14.5.36.63.64.16.3.16.7.16 1.52v12.7c0 .82 0 1.22-.16 1.53-.14.27-.36.5-.63.63-.3.16-.71.16-1.52.16h-1.16c-.8 0-1.21 0-1.52-.16-.27-.14-.5-.36-.63-.63-.16-.3-.16-.71-.16-1.52V11.48Z" fill="none" stroke="#000"/></svg>